HIERARCHY
ROOT Hips
{
	OFFSET 0.000000 8.830580 0.000000
	CHANNELS 6 Xposition Yposition Zposition Zrotation Yrotation Xrotation 
	JOINT Spine
	{
		OFFSET 0.000000 0.010000 0.000000
		CHANNELS 3 Zrotation Yrotation Xrotation
		JOINT Spine1
		{
			OFFSET 0.000000 2.459130 0.000000
			CHANNELS 3 Zrotation Yrotation Xrotation
			JOINT Neck
			{
				OFFSET 0.000000 2.484630 0.000000
				CHANNELS 3 Zrotation Yrotation Xrotation
				JOINT Head_virtual
				{
					OFFSET 0.000000 0.000000 0.000000
					CHANNELS 3 Zrotation Yrotation Xrotation
					JOINT Head
					{
						OFFSET 0.000000 0.927525 0.000000
						CHANNELS 3 Zrotation Yrotation Xrotation
						End Site
						{
							OFFSET 0.000000 0.000000 0.000000
						}
					}
				}
				JOINT LeftUpArm_virtual
				{
					OFFSET 0.000000 0.000000 0.000000
					CHANNELS 3 Zrotation Yrotation Xrotation
					JOINT LeftUpArm
					{
						OFFSET 1.248820 0.000000 0.000000
						CHANNELS 3 Zrotation Yrotation Xrotation
						JOINT LeftForeArm
						{
							OFFSET 2.597580 0.000000 0.000000
							CHANNELS 3 Zrotation Yrotation Xrotation
							JOINT LeftHand
							{
								OFFSET 2.455420 0.000000 0.000000
								CHANNELS 3 Zrotation Yrotation Xrotation
								End Site
								{
									OFFSET 0.000000 0.000000 0.000000
								}
							}
						}
					}
				}
				JOINT RightUpArm_virtual
				{
					OFFSET -0.000000 -0.000000 -0.000000
					CHANNELS 3 Zrotation Yrotation Xrotation
					JOINT RightUpArm
					{
						OFFSET -1.248820 -0.000000 -0.000000
						CHANNELS 3 Zrotation Yrotation Xrotation
						JOINT RightForeArm
						{
							OFFSET -2.597580 -0.000000 -0.000000
							CHANNELS 3 Zrotation Yrotation Xrotation
							JOINT RightHand
							{
								OFFSET -2.455420 -0.000000 -0.000000
								CHANNELS 3 Zrotation Yrotation Xrotation
								End Site
								{
									OFFSET 0.000000 0.000000 0.000000
								}
							}
						}
					}
				}
			}
		}
	}
	JOINT LeftUpLeg
	{
		OFFSET 1.271939 0.000000 0.000000
		CHANNELS 3 Zrotation Yrotation Xrotation
		JOINT LeftLowLeg
		{
			OFFSET 0.000000 -4.342910 0.000000
			CHANNELS 3 Zrotation Yrotation Xrotation
			JOINT LeftFoot
			{
				OFFSET 0.000000 -4.487670 0.000000
				CHANNELS 3 Zrotation Yrotation Xrotation
				JOINT LeftToeBase
				{
					OFFSET 0.000000 0.000000 1.515070
					CHANNELS 3 Zrotation Yrotation Xrotation
					End Site
					{
						OFFSET 0.000000 0.000000 0.000000
					}
				}
			}
		}
	}
	JOINT RightUpLeg
	{
		OFFSET -1.271939 0.000000 0.000000
		CHANNELS 3 Zrotation Yrotation Xrotation
		JOINT RightLowLeg
		{
			OFFSET 0.000000 -4.342910 0.000000
			CHANNELS 3 Zrotation Yrotation Xrotation
			JOINT RightFoot
			{
				OFFSET 0.000000 -4.487670 0.000000
				CHANNELS 3 Zrotation Yrotation Xrotation
				JOINT RightToeBase
				{
					OFFSET 0.000000 0.000000 1.515070
					CHANNELS 3 Zrotation Yrotation Xrotation
					End Site
					{
						OFFSET 0.000000 0.000000 0.000000
					}
				}
			}
		}
	}
}
MOTION
Frames: 7
Frame Time: 0.041667
-13.070986 8.781105 38.098326 -167.245553 -20.331724 178.870895 10.406750 3.486111 -13.923582 0.999221 -3.604516 15.864709 0.000000 0.000000 0.000000 -8.192947 18.765005 -11.812824 -29.141371 -13.187233 -80.338753 -16.506701 17.102800 -0.743955 -30.375799 -0.772677 -61.934998 -180.000000 -54.294998 180.000000 31.926100 60.732700 -56.569000 16.190599 -11.111800 -2.964540 28.662100 -10.492600 77.802200 0.000000 78.635300 0.000000 -93.691803 57.652401 -24.569201 12.703168 -3.898116 -19.442483 0.000000 0.000000 41.571701 -5.131310 4.863052 -16.254125 0.000000 0.000000 -11.842840 20.244492 33.292866 0.091619 0.000000 0.000000 3.485560 5.087795 -26.945009 5.355740 0.000000 0.000000 -18.866030 
-13.072996 8.777044 38.102885 -167.102000 -20.328330 178.856250 10.597566 3.705869 -13.830593 1.040028 -3.549861 16.053631 0.000000 0.000000 0.000000 -8.554081 19.307628 -10.794036 -29.201956 -13.077856 -80.572273 -16.736000 17.312799 -0.712314 -31.438700 0.259686 -62.164001 180.000000 -54.708000 -180.000000 30.123899 61.815201 -59.101990 16.582701 -11.411700 -2.856650 28.415600 -10.995500 76.616600 0.000000 78.902298 0.000000 -93.670197 58.413101 -24.750200 12.814563 -3.843141 -19.606188 0.000000 0.000000 41.783600 -5.140222 4.842202 -16.383011 0.000000 0.000000 -11.819530 20.312520 33.365971 0.087313 0.000000 0.000000 3.370590 5.194069 -26.944139 5.320669 0.000000 0.000000 -18.833700 
-13.073346 8.774231 38.107502 -166.991599 -20.461728 178.705206 10.714422 3.849675 -13.731188 1.055131 -3.528372 16.404071 0.000000 0.000000 0.000000 -8.973826 19.825559 -9.979351 -29.135591 -12.961571 -80.722230 -16.782301 17.496799 -0.536904 -32.172199 0.770931 -61.705994 -180.000000 -54.939003 180.000000 30.449600 62.167599 -59.398010 16.639700 -11.619800 -2.892560 28.414600 -11.216700 75.904404 0.000000 79.038002 0.000000 -93.210403 59.129398 -24.476601 12.891561 -3.909454 -19.677070 0.000000 0.000000 41.981499 -5.051226 4.858767 -16.417958 0.000000 0.000000 -11.824540 20.429850 33.257398 0.159280 0.000000 0.000000 3.353010 5.247375 -26.970417 5.290244 0.000000 0.000000 -18.877780 
-13.072311 8.773457 38.112069 -166.940092 -20.720398 178.442874 10.730416 3.886534 -13.607493 1.021328 -3.560090 16.843170 0.000000 0.000000 0.000000 -9.331643 20.386177 -9.338122 -29.528021 -12.595721 -80.751179 -16.877199 17.520800 -0.198244 -32.223701 0.887741 -61.102997 -180.000000 -54.942001 180.000000 31.493401 61.954700 -58.437988 16.596500 -11.683000 -3.000540 28.416800 -11.219900 75.511200 0.000000 79.093002 0.000000 -92.460403 59.979801 -24.013399 12.912162 -4.130265 -19.631269 0.000000 0.000000 42.099701 -4.971182 4.867248 -16.360947 0.000000 0.000000 -11.863100 20.563034 32.976502 0.315145 0.000000 0.000000 3.391380 5.237491 -27.013753 5.267685 0.000000 0.000000 -18.886170 
-13.069954 8.774102 38.116973 -166.951644 -21.061176 178.249366 10.671503 3.927878 -13.558253 0.924785 -3.522044 17.192682 0.000000 0.000000 0.000000 -9.776863 21.035473 -8.783921 -29.788104 -12.199334 -80.781698 -16.926500 17.082399 -0.102610 -31.782400 0.980188 -60.325989 180.000000 -54.714996 -180.000000 31.646099 61.454201 -57.483002 16.619600 -11.634900 -2.907870 28.333599 -11.039600 75.297302 0.000000 79.145699 0.000000 -92.073097 60.393200 -23.298300 12.886461 -4.421520 -19.620576 0.000000 0.000000 42.123901 -4.904125 4.854298 -16.232725 0.000000 0.000000 -11.898700 20.600825 32.583871 0.365665 0.000000 0.000000 3.478830 5.228942 -27.021465 5.229286 0.000000 0.000000 -18.885780 
-13.066923 8.776278 38.123013 -167.004421 -21.401110 178.084206 10.547539 3.942077 -13.516283 0.873693 -3.455277 17.443424 0.000000 0.000000 0.000000 -10.560780 21.925777 -8.215293 -29.899255 -11.846270 -80.910769 -16.913401 16.723900 0.288936 -31.235201 0.183527 -59.631989 -180.000000 -54.397003 180.000000 30.638800 60.387402 -57.173004 16.652901 -11.446600 -2.800550 28.127199 -10.720200 75.329102 0.000000 79.192703 0.000000 -91.763702 60.695999 -23.302799 12.831881 -4.736498 -19.580583 0.000000 0.000000 42.048901 -4.873920 4.809899 -16.063692 0.000000 0.000000 -11.932670 20.586508 32.142060 0.371052 0.000000 0.000000 3.603060 5.180541 -26.992685 5.222552 0.000000 0.000000 -18.899080 
-13.064099 8.779007 38.128511 -167.078019 -21.825509 178.021022 10.389059 3.947249 -13.542935 0.864756 -3.343229 17.574782 0.000000 0.000000 0.000000 -11.652543 22.932161 -7.769621 -29.877095 -11.547342 -81.024250 -16.768499 16.195000 0.635719 -30.735500 -0.857538 -58.769012 180.000000 -53.933998 -180.000000 29.308701 59.328899 -56.467987 16.689199 -11.312500 -2.634380 27.902300 -10.278500 75.483002 0.000000 79.202400 0.000000 -91.961998 60.732899 -22.932699 12.768099 -5.139746 -19.637584 0.000000 0.000000 41.929001 -4.879394 4.752206 -15.877715 0.000000 0.000000 -11.945180 20.493174 31.700164 0.293778 0.000000 0.000000 3.660910 5.111915 -27.031005 5.222204 0.000000 0.000000 -18.874640 
